<svg xmlns="http://www.w3.org/2000/svg" version="1.1" xmlns:xlink="http://www.w3.org/1999/xlink" xmlns:svgjs="http://svgjs.dev/svgjs" width="100%" height="100%" viewBox="0 0 1000 600"><rect width="1000" height="600" x="0" y="0" fill="#ee4e34"/><g><rect width="333.3333333333333" height="333.3333333333333" rx="13.333333333333334" ry="13.333333333333334" y="139.94225076436996" fill="#fcedda" transform="matrix(1.061841371890757,0,0,1.061841371890757,0,-25.570043678037948)" x="117.72003173828125"/><path d="M249.93278095508373 381.60892285970044L236.0754578562491 381.60892285970044L200.84818546832332 251.36902512441196Q199.2699026552442 245.68720699732714 197.56535721711873 242.84629793378474Q195.8608117789933 240.00538887024234 192.6726804965735 239.12155049491804Q189.48454921415367 238.20614646333215 183.3608118994067 238.20614646333215L183.3608118994067 238.20614646333215L183.3608118994067 231.60892430466146L234.49717504317 231.60892430466146L234.49717504317 238.20614646333215L224.93278119591056 238.20614646333215Q221.08177113199753 238.20614646333215 220.07167013162692 239.78442927641126Q219.0300034749947 241.39427774575196 220.16636710041166 246.60261102891303L220.16636710041166 246.60261102891303L249.04894257975943 353.64175141193857L249.49086176742156 353.64175141193857L281.0880836852654 235.23897477474344L293.80904315868304 235.23897477474344L328.3418711088541 353.8942766620312L329.2572751404399 353.8942766620312L355.8671233689538 247.29705546666784Q357.00348699437075 243.19352015266213 356.43530518166233 240.69983330799715Q355.8671233689538 238.20614646333215 351.32166886728595 238.20614646333215L351.32166886728595 238.20614646333215L340.62091139460955 238.20614646333215L340.62091139460955 231.60892430466146L385.4125776297948 231.60892430466146L385.4125776297948 238.20614646333215Q378.8153554711241 238.20614646333215 375.05904237599583 239.5634696825802Q371.30272928086754 240.92079290182824 369.25096162386467 244.3298837780791Q367.2307596231234 247.73897465433 365.1789919661206 254.3361968130007L365.1789919661206 254.3361968130007L329.73075998436366 381.60892285970044L316.09439647936017 381.60892285970044L282.22444731068236 265.6998330671703L281.5300028729276 265.6998330671703L249.93278095508373 381.60892285970044Z " fill="#ee4e34" transform="matrix(1.061841371890757,0,0,1.061841371890757,0,-25.570043678037948)"/><path d="M576.2213440610981 345.89238613503915L534.3866983918067 345.89238613503915L534.3866983918067 340.9553782610234Q540.6701629587358 340.9553782610234 543.4103204390508 340.2703388909447Q546.1268558721217 339.6089215681101 546.8118952422004 337.55380345787376Q547.473312565035 335.52230739488164 547.473312565035 331.4356932216533L547.473312565035 331.4356932216533L547.473312565035 248.2624648751966Q547.473312565035 244.17585070196824 546.8118952422004 242.1443546389761Q546.1268558721217 240.11285857598398 543.4103204390508 239.33333101692887Q540.6701629587358 238.57742550511784 534.3866983918067 238.57742550511784L534.3866983918067 238.57742550511784L534.3866983918067 233.64041763110208L576.2213440610981 233.64041763110208L576.2213440610981 238.57742550511784Q570.1032338248776 238.57742550511784 567.2922102028303 239.33333101692887Q564.4811865807831 240.11285857598398 563.8197692579485 242.1443546389761Q563.1347298878698 244.17585070196824 563.1347298878698 248.2624648751966L563.1347298878698 248.2624648751966L563.1347298878698 284.1443546389761L617.8906353996807 284.1443546389761L617.8906353996807 248.2624648751966Q617.8906353996807 244.17585070196824 617.205596029602 242.1443546389761Q616.5441787067673 240.11285857598398 613.8040212264524 239.33333101692887Q611.0874857933816 238.57742550511784 604.8040212264524 238.57742550511784L604.8040212264524 238.57742550511784L604.8040212264524 233.64041763110208L646.6386668957437 233.64041763110208L646.6386668957437 238.57742550511784Q640.5205566595232 238.57742550511784 637.709533037476 239.33333101692887Q634.8985094154287 240.11285857598398 634.21347004535 242.1443546389761Q633.5520527225153 244.17585070196824 633.5520527225153 248.2624648751966L633.5520527225153 248.2624648751966L633.5520527225153 331.4356932216533Q633.5520527225153 335.52230739488164 634.3079582343264 337.55380345787376Q635.0638637461374 339.6089215681101 637.8040212264524 340.2703388909447Q640.5205566595232 340.9553782610234 646.6386668957437 340.9553782610234L646.6386668957437 340.9553782610234L646.6386668957437 345.89238613503915L604.8040212264524 345.89238613503915L604.8040212264524 340.9553782610234Q611.0874857933816 340.9553782610234 613.8040212264524 340.2703388909447Q616.5441787067673 339.6089215681101 617.205596029602 337.55380345787376Q617.8906353996807 335.52230739488164 617.8906353996807 331.4356932216533L617.8906353996807 331.4356932216533L617.8906353996807 290.616795583858L563.1347298878698 290.616795583858L563.1347298878698 331.4356932216533Q563.1347298878698 335.52230739488164 563.8197692579485 337.55380345787376Q564.4811865807831 339.6089215681101 567.2922102028303 340.2703388909447Q570.1032338248776 340.9553782610234 576.2213440610981 340.9553782610234L576.2213440610981 340.9553782610234L576.2213440610981 345.89238613503915ZM717.3866983918067 347.92388219803127L717.3866983918067 347.92388219803127Q700.21347004535 347.92388219803127 688.21347004535 340.9553782610234Q676.2370920925941 333.9868743240155 670.1189818563737 321.23096881220454Q663.977249572909 308.4750633003934 663.977249572909 291.13648062322807L663.977249572909 291.13648062322807Q663.977249572909 272.5931735366139 670.4496905177909 259.2467168437005Q676.9221314626728 245.87663810354303 689.1583519351138 238.74277983582652Q701.3945724075547 231.60892156810996 718.7567771319642 231.60892156810996L718.7567771319642 231.60892156810996Q726.9063834311768 231.60892156810996 732.197722013854 233.120732591732Q737.465438549287 234.65616566259814 740.7725251634603 236.2860869224407Q744.1032338248775 237.89238613503912 746.3000842185784 237.89238613503912L746.3000842185784 237.89238613503912Q748.1662259508619 237.89238613503912 749.1111078406256 237.13648062322807Q750.0559897303895 236.35695306417296 750.3866983918067 235.50655936338558L750.3866983918067 235.50655936338558L751.0717377618854 233.64041763110208L755.4890605965311 233.64041763110208L757.189847998106 264.25459085944857L752.7725251634603 264.25459085944857Q751.7567771319642 260.00262235551156 749.6307928799956 255.32545700118084Q747.5048086280271 250.64829164685014 743.7489031162162 246.56167747362178Q740.0166196516492 242.47506330039343 734.1347298878698 239.92388219803124Q728.2764621713343 237.37270109566902 719.7725251634603 237.37270109566902L719.7725251634603 237.37270109566902Q710.5835487855074 237.37270109566902 704.1347298878696 240.77427589881864Q697.6622889429877 244.17585070196824 693.4103204390508 249.89238613503912Q689.1583519351138 255.58529952086587 686.701659021728 262.4593152688974Q684.2213440610981 269.35695306417296 683.2055960296019 276.4199451901572Q682.189847998106 283.48293731614143 682.189847998106 289.60104755236193L682.189847998106 289.60104755236193Q682.189847998106 299.2860869224407 684.2213440610981 308.64041763110214Q686.2764621713343 317.99474833976353 690.7646511477122 325.57742550511784Q695.2764621713343 333.13648062322807 702.5048086280271 337.6482916468501Q709.7331550847201 342.16010267047216 719.9378794941689 342.16010267047216L719.9378794941689 342.16010267047216Q728.2764621713343 342.16010267047216 733.969375557161 339.9396302295273Q739.6622889429877 337.7191577885825 743.4181944547988 334.1522286547241Q747.1504779193658 330.5852995208659 749.5363046910193 326.4278192059053Q751.9221314626728 322.2467168437006 753.6229188642476 318.5144333791336L753.6229188642476 318.5144333791336L758.0402416988933 320.71128377283446Q756.5048086280271 324.63254361535405 753.7882731949563 329.30970896968483Q751.0717377618854 333.9868743240155 746.465438549287 338.23884282795257Q741.8827613839327 342.4908113318895 734.8197692579485 345.20734676496045Q727.7567771319641 347.92388219803127 717.3866983918067 347.92388219803127ZM778.7803991792083 381.60892156810996L778.7803991792083 381.60892156810996Q770.1111078406256 381.60892156810996 764.5835487855074 377.1915987334644Q759.0559897303893 372.7742758988187 759.0559897303893 366.8215199933069L759.0559897303893 366.8215199933069Q759.0559897303893 361.8845121192911 761.7016590217279 358.9081341665352Q764.3237062658225 355.9317562137793 769.0953598091295 355.9317562137793L769.0953598091295 355.9317562137793Q772.6622889429877 355.9317562137793 775.3788243760587 357.9632522767714Q778.1189818563737 360.0183703870076 778.1189818563737 364.2703388909447L778.1189818563737 364.2703388909447Q778.1189818563737 366.9868743240155 777.3394542973185 368.26246487519666Q776.5835487855074 369.5380554263777 775.8040212264524 370.2939609381888Q775.0481157146413 371.07348849724383 775.0481157146413 372.41994519015725L775.0481157146413 372.41994519015725Q775.0481157146413 374.120732591732 776.5835487855074 375.0656144814958Q778.1189818563737 375.9868743240155 780.3158322500744 375.9868743240155L780.3158322500744 375.9868743240155Q786.4339424862949 375.9868743240155 789.6701629587358 372.2545908594486Q792.9063834311768 368.52230739488164 794.0874857933816 361.9553782610234Q795.2922102028303 355.4120711744092 795.2922102028303 346.9081341665352L795.2922102028303 346.9081341665352L795.2922102028303 248.94750424527533Q795.2922102028303 244.53018141062967 794.6071708327515 242.30970896968478Q793.9221314626728 240.11285857598398 791.205596029602 239.33333101692887Q788.4890605965311 238.57742550511784 782.1819739823579 238.57742550511784L782.1819739823579 238.57742550511784L782.1819739823579 233.64041763110208L824.0402416988933 233.64041763110208L824.0402416988933 238.57742550511784Q817.73315508472 238.57742550511784 815.0166196516493 239.33333101692887Q812.3000842185784 240.11285857598398 811.6150448484996 242.30970896968478Q810.930005478421 244.53018141062967 810.930005478421 248.94750424527533L810.930005478421 248.94750424527533L810.930005478421 332.45144125314937Q810.930005478421 342.8215199933069 809.5835487855074 351.7506538515746Q808.21347004535 360.67978770984234 804.717407053224 367.4120711744092Q801.2449661083422 374.120732591732 794.9378794941689 377.8766381035431Q788.6544149272397 381.60892156810996 778.7803991792083 381.60892156810996Z " fill="#fcedda" transform="matrix(1.061841371890757,0,0,1.061841371890757,0,-25.570043678037948)"/></g></svg>